<?xml version="1.0" standalone="no"?>
<!DOCTYPE svg PUBLIC "-//W3C//DTD SVG 20010904//EN"
 "http://www.w3.org/TR/2001/REC-SVG-20010904/DTD/svg10.dtd">
<svg version="1.0" xmlns="http://www.w3.org/2000/svg"
 width="700.000000pt" height="700.000000pt" viewBox="0 0 700.000000 700.000000"
 preserveAspectRatio="xMidYMid meet">
<metadata>
Created by potrace 1.11, written by Peter Selinger 2001-2013
</metadata>
<g transform="translate(0.000000,700.000000) scale(0.100000,-0.100000)"
fill="#000000" stroke="none">
<path d="M3369 6996 c-2 -2 -31 -7 -64 -11 -72 -8 -234 -47 -313 -77 -580
-214 -974 -744 -1006 -1357 l-5 -81 1532 2 1532 3 -1 35 c-13 393 -166 750
-439 1026 -150 152 -271 239 -440 318 -204 96 -385 137 -626 142 -92 1 -168 1
-170 0z"/>
<path d="M775 5676 c-233 -57 -384 -303 -324 -530 30 -114 48 -136 408 -498
l345 -347 0 -401 1 -400 -401 0 c-221 0 -424 -4 -453 -10 -158 -30 -286 -151
-336 -318 -19 -62 -12 -195 14 -262 44 -116 151 -216 280 -263 53 -19 82 -20
473 -21 230 -1 418 -3 419 -6 0 -3 2 -90 4 -195 3 -191 13 -296 41 -422 8 -37
17 -79 20 -91 9 -44 75 -233 99 -285 l24 -52 -32 -33 c-18 -19 -208 -210 -423
-425 -215 -216 -405 -413 -422 -438 -53 -79 -75 -160 -70 -264 4 -76 10 -101
38 -160 57 -120 161 -206 289 -240 62 -16 191 -14 236 5 110 46 123 57 523
454 306 305 406 398 416 391 184 -135 383 -246 546 -305 83 -31 242 -75 304
-85 17 -3 55 -10 84 -15 30 -5 102 -12 160 -16 59 -3 113 -7 120 -9 9 -4 12
336 12 1673 0 1070 4 1690 10 1712 11 40 61 94 101 109 15 5 116 9 230 8 179
-2 208 -4 234 -20 36 -22 72 -72 79 -107 2 -14 5 -778 5 -1699 l1 -1674 126 7
c69 3 129 8 132 10 4 2 31 7 60 11 30 4 97 18 150 32 121 31 114 29 132 35 8
3 44 16 80 29 145 50 337 153 477 256 40 29 76 53 80 53 5 0 181 -173 393
-385 212 -212 405 -399 430 -415 126 -81 286 -90 425 -24 179 86 279 292 236
486 -28 124 -37 135 -502 601 l-437 438 39 95 c96 236 139 460 144 749 2 105
4 195 4 200 1 7 129 11 394 10 215 0 415 3 442 8 111 19 233 100 294 195 147
229 47 541 -205 640 -75 30 -99 31 -529 32 l-400 0 1 402 1 403 332 330 c182
182 345 350 360 375 112 173 89 403 -53 546 -112 112 -276 156 -426 115 -110
-31 -141 -57 -549 -465 l-394 -394 -1566 0 -1566 0 -400 398 c-398 396 -432
425 -530 458 -56 18 -171 22 -230 8z"/>
</g>
</svg>
